{"accessors":[{"bufferView":2,"componentType":5126,"count":65339,"max":[5000,5000,5000],"min":[-5000,-5000,-5000],"type":"VEC3"},{"bufferView":2,"byteOffset":784068,"componentType":5126,"count":65339,"max":[1,1,1],"min":[-1,-1,-1],"type":"VEC3"},{"bufferView":1,"componentType":5126,"count":65339,"max":[1,1],"min":[0,0],"type":"VEC2"},{"bufferView":3,"componentType":5126,"count":65339,"max":[1,0.0043641240336000919,1,1],"min":[-1,-0.0043641235679388046,-1,1],"type":"VEC4"},{"bufferView":0,"componentType":5125,"count":386640,"max":[65338],"min":[0],"type":"SCALAR"},{"bufferView":2,"byteOffset":1568136,"componentType":5126,"count":65339,"max":[5003.00830078125,5003.00830078125,5003.00830078125],"min":[-5003.00830078125,-5003.00830078125,-5003.00830078125],"type":"VEC3"},{"bufferView":2,"byteOffset":2352204,"componentType":5126,"count":65339,"max":[1,1,1],"min":[-1,-1,-1],"type":"VEC3"},{"bufferView":1,"byteOffset":522712,"componentType":5126,"count":65339,"max":[1,1],"min":[0,0],"type":"VEC2"},{"bufferView":3,"byteOffset":1045424,"componentType":5126,"count":65339,"max":[1,0.0043659545481204987,1,1],"min":[-1,-0.0043659545481204987,-1,1],"type":"VEC4"},{"bufferView":0,"byteOffset":1546560,"componentType":5125,"count":386640,"max":[65338],"min":[0],"type":"SCALAR"},{"bufferView":2,"byteOffset":3136272,"componentType":5126,"count":65339,"max":[5100.5,5100.5,5100.5],"min":[-5100.5,-5100.5,-5100.5],"type":"VEC3"},{"bufferView":2,"byteOffset":3920340,"componentType":5126,"count":65339,"max":[1,1,1],"min":[-1,-1,-1],"type":"VEC3"},{"bufferView":3,"byteOffset":2090848,"componentType":5126,"count":65339,"max":[1,0.0043673417530953884,1,1],"min":[-1,-0.0043673417530953884,-1,1],"type":"VEC4"},{"bufferView":0,"byteOffset":3093120,"componentType":5125,"count":386640,"max":[65338],"min":[0],"type":"SCALAR"},{"bufferView":2,"byteOffset":4704408,"componentType":5126,"count":65339,"max":[5202.51025390625,5202.51025390625,5202.51025390625],"min":[-5202.51025390625,-5202.51025390625,-5202.51025390625],"type":"VEC3"},{"bufferView":2,"byteOffset":5488476,"componentType":5126,"count":65339,"max":[1,1,1],"min":[-1,-1,-1],"type":"VEC3"},{"bufferView":3,"byteOffset":3136272,"componentType":5126,"count":65339,"max":[1,0.0043672649189829826,1,1],"min":[-1,-0.0043672653846442699,-1,1],"type":"VEC4"},{"bufferView":0,"byteOffset":4639680,"componentType":5125,"count":386640,"max":[65338],"min":[0],"type":"SCALAR"},{"bufferView":2,"byteOffset":6272544,"componentType":5126,"count":65339,"max":[5253.51513671875,5253.51513671875,5253.51513671875],"min":[-5253.51513671875,-5253.51513671875,-5253.51513671875],"type":"VEC3"},{"bufferView":2,"byteOffset":7056612,"componentType":5126,"count":65339,"max":[1,1,1],"min":[-1,-1,-1],"type":"VEC3"},{"bufferView":3,"byteOffset":4181696,"componentType":5126,"count":65339,"max":[1,0.0043662874959409237,1,1],"min":[-1,-0.0043662870302796364,-1,1],"type":"VEC4"},{"bufferView":0,"byteOffset":6186240,"componentType":5125,"count":386640,"max":[65338],"min":[0],"type":"SCALAR"},{"bufferView":2,"byteOffset":7840680,"componentType":5126,"count":65339,"max":[5304.52001953125,5304.52001953125,5304.52001953125],"min":[-5304.52001953125,-5304.52001953125,-5304.52001953125],"type":"VEC3"},{"bufferView":2,"byteOffset":8624748,"componentType":5126,"count":65339,"max":[1,1,1],"min":[-1,-1,-1],"type":"VEC3"},{"bufferView":3,"byteOffset":5227120,"componentType":5126,"count":65339,"max":[1,0.0043634632602334023,1,1],"min":[-1,-0.0043634627945721149,-1,1],"type":"VEC4"},{"bufferView":0,"byteOffset":7732800,"componentType":5125,"count":386640,"max":[65338],"min":[0],"type":"SCALAR"},{"bufferView":2,"byteOffset":9408816,"componentType":5126,"count":65339,"max":[5355.525390625,5355.525390625,5355.525390625],"min":[-5355.525390625,-5355.525390625,-5355.525390625],"type":"VEC3"},{"bufferView":2,"byteOffset":10192884,"componentType":5126,"count":65339,"max":[1,1,1],"min":[-1,-1,-1],"type":"VEC3"},{"bufferView":3,"byteOffset":6272544,"componentType":5126,"count":65339,"max":[1,0.0043662330135703087,1,1],"min":[-1,-0.004366233479231596,-1,1],"type":"VEC4"},{"bufferView":0,"byteOffset":9279360,"componentType":5125,"count":386640,"max":[65338],"min":[0],"type":"SCALAR"},{"bufferView":2,"byteOffset":10976952,"componentType":5126,"count":65339,"max":[5406.52978515625,5406.52978515625,5406.52978515625],"min":[-5406.52978515625,-5406.52978515625,-5406.52978515625],"type":"VEC3"},{"bufferView":2,"byteOffset":11761020,"componentType":5126,"count":65339,"max":[1,1,1],"min":[-1,-1,-1],"type":"VEC3"},{"bufferView":3,"byteOffset":7317968,"componentType":5126,"count":65339,"max":[1,0.0043671219609677792,1,1],"min":[-1,-0.0043671219609677792,-1,1],"type":"VEC4"},{"bufferView":0,"byteOffset":10825920,"componentType":5125,"count":386640,"max":[65338],"min":[0],"type":"SCALAR"}],"asset":{"generator":"Sketchfab (OSG glTF plugin)","version":"2.0"},"bufferViews":[{"buffer":0,"byteLength":12372480,"byteOffset":0,"name":"ScalarBufferView","target":34962},{"buffer":0,"byteLength":1045424,"byteOffset":12372480,"byteStride":8,"name":"Vec2BufferView","target":34962},{"buffer":0,"byteLength":12545088,"byteOffset":13417904,"byteStride":12,"name":"Vec3BufferView","target":34962},{"buffer":0,"byteLength":8363392,"byteOffset":25962992,"byteStride":16,"name":"Vec4BufferView","target":34962}],"buffers":[{"byteLength":34326384,"uri":"scene.bin"}],"images":[{"uri":"textures\/NUAGES_baseColor.png"},{"uri":"textures\/TERRE_baseColor.jpeg"},{"uri":"textures\/TERRE_metallicRoughness.png"},{"uri":"textures\/TERRE_emissive.jpg"}],"materials":[{"doubleSided":true,"emissiveFactor":[1,1,1],"emissiveTexture":{"index":3,"texCoord":0},"name":"TERRE","pbrMetallicRoughness":{"baseColorFactor":[0.34999999999999998,0.34999999999999998,0.34999999999999998,1],"baseColorTexture":{"index":1,"texCoord":0},"metallicFactor":1,"metallicRoughnessTexture":{"index":2,"texCoord":0},"roughnessFactor":0.55000000000000004}},{"alphaCutoff":0.5,"alphaMode":"BLEND","doubleSided":false,"emissiveFactor":[0.053229800399999999,0.14320318914999999,0.50444964815000004],"name":"NUAGES","pbrMetallicRoughness":{"baseColorFactor":[1,1,1,0.20000000000000001],"baseColorTexture":{"index":0,"texCoord":0},"metallicFactor":1,"roughnessFactor":0.83999999999999997}},{"alphaCutoff":0.5,"alphaMode":"BLEND","doubleSided":false,"emissiveFactor":[0.1216681152,0.32732157519999999,1],"name":"01","pbrMetallicRoughness":{"baseColorFactor":[0,0,0,0.01],"metallicFactor":0,"roughnessFactor":1}},{"alphaCutoff":0.5,"alphaMode":"BLEND","doubleSided":true,"emissiveFactor":[0.1216681152,0.32732157519999999,1],"name":"02","pbrMetallicRoughness":{"baseColorFactor":[0,0,0,0.01],"metallicFactor":0,"roughnessFactor":1}},{"alphaCutoff":0.5,"alphaMode":"BLEND","doubleSided":false,"emissiveFactor":[0.1216681152,0.32732157519999999,1],"name":"03","pbrMetallicRoughness":{"baseColorFactor":[0,0,0,0.01],"metallicFactor":0,"roughnessFactor":1}},{"alphaCutoff":0.5,"alphaMode":"BLEND","doubleSided":false,"emissiveFactor":[0.1216681152,0.32732157519999999,1],"name":"04","pbrMetallicRoughness":{"baseColorFactor":[0,0,0,0.01],"metallicFactor":0,"roughnessFactor":1}},{"alphaCutoff":0.5,"alphaMode":"BLEND","doubleSided":false,"emissiveFactor":[0.1216681152,0.32732157519999999,1],"name":"05","pbrMetallicRoughness":{"baseColorFactor":[0,0,0,0.01],"metallicFactor":0,"roughnessFactor":1}},{"alphaCutoff":0.5,"alphaMode":"BLEND","doubleSided":false,"emissiveFactor":[0.1236668112,0.33603902879999997,1],"name":"06","pbrMetallicRoughness":{"baseColorFactor":[0,0,0,0.01],"metallicFactor":0,"roughnessFactor":1}}],"meshes":[{"name":"EARTH:Layer1","primitives":[{"attributes":{"NORMAL":1,"POSITION":0,"TANGENT":3,"TEXCOORD_0":2},"indices":4,"material":0,"mode":4}]},{"name":"EARTH:Layer2","primitives":[{"attributes":{"NORMAL":6,"POSITION":5,"TANGENT":8,"TEXCOORD_0":7},"indices":9,"material":1,"mode":4}]},{"name":"EARTH:Layer3","primitives":[{"attributes":{"NORMAL":11,"POSITION":10,"TANGENT":12},"indices":13,"material":2,"mode":4}]},{"name":"EARTH:Layer4","primitives":[{"attributes":{"NORMAL":15,"POSITION":14,"TANGENT":16},"indices":17,"material":3,"mode":4}]},{"name":"EARTH:Layer5","primitives":[{"attributes":{"NORMAL":19,"POSITION":18,"TANGENT":20},"indices":21,"material":4,"mode":4}]},{"name":"EARTH:Layer6","primitives":[{"attributes":{"NORMAL":23,"POSITION":22,"TANGENT":24},"indices":25,"material":5,"mode":4}]},{"name":"EARTH:Layer7","primitives":[{"attributes":{"NORMAL":27,"POSITION":26,"TANGENT":28},"indices":29,"material":6,"mode":4}]},{"name":"EARTH:Layer8","primitives":[{"attributes":{"NORMAL":31,"POSITION":30,"TANGENT":32},"indices":33,"material":7,"mode":4}]}],"nodes":[{"children":[1],"name":"RootNode (gltf orientation matrix)","rotation":[-0.70710678118654746,-0,-0,0.70710678118654757]},{"children":[2],"name":"RootNode (model correction matrix)"},{"children":[3],"matrix":[1,0,0,0,0,0,1,0,0,-1,0,0,0,0,0,1],"name":"5fbd3316863b4d98adffc1dec302e69e.fbx"},{"children":[4],"name":""},{"children":[5,7,9,11,13,15,17,19],"name":"RootNode"},{"children":[6],"name":"EARTH:Layer1"},{"mesh":0,"name":"EARTH:Layer1"},{"children":[8],"name":"EARTH:Layer2"},{"mesh":1,"name":"EARTH:Layer2"},{"children":[10],"name":"EARTH:Layer3"},{"mesh":2,"name":"EARTH:Layer3"},{"children":[12],"name":"EARTH:Layer4"},{"mesh":3,"name":"EARTH:Layer4"},{"children":[14],"name":"EARTH:Layer5"},{"mesh":4,"name":"EARTH:Layer5"},{"children":[16],"name":"EARTH:Layer6"},{"mesh":5,"name":"EARTH:Layer6"},{"children":[18],"name":"EARTH:Layer7"},{"mesh":6,"name":"EARTH:Layer7"},{"children":[20],"name":"EARTH:Layer8"},{"mesh":7,"name":"EARTH:Layer8"}],"samplers":[{"magFilter":9729,"minFilter":9987,"wrapS":10497,"wrapT":10497}],"scene":0,"scenes":[{"name":"OSG_Scene","nodes":[0]}],"textures":[{"sampler":0,"source":0},{"sampler":0,"source":1},{"sampler":0,"source":2},{"sampler":0,"source":3}]}
