{"accessors":[{"bufferView":2,"componentType":5126,"count":5658,"max":[547.322021484375,769.1959228515625,115.45781707763672],"min":[-547.322021484375,-117.08539581298828,-113.16572570800781],"type":"VEC3"},{"bufferView":2,"byteOffset":67896,"componentType":5126,"count":5658,"max":[1,1,1],"min":[-1,-1,-1],"type":"VEC3"},{"bufferView":1,"componentType":5126,"count":5658,"max":[0.9921875,0.95357441902160645],"min":[0.0078125,0.0078125],"type":"VEC2"},{"bufferView":3,"componentType":5126,"count":5658,"max":[1,1,1,1],"min":[-0.88085037469863892,-1,-1,1],"type":"VEC4"},{"bufferView":0,"componentType":5125,"count":15060,"max":[5657],"min":[0],"type":"SCALAR"},{"bufferView":2,"byteOffset":135792,"componentType":5126,"count":1120,"max":[422.15863037109375,673.4053955078125,37.520278930664062],"min":[-422.15863037109375,0.4445037841796875,-39.652297973632812],"type":"VEC3"},{"bufferView":2,"byteOffset":149232,"componentType":5126,"count":1120,"max":[0.99931514263153076,0.99931484460830688,9.2323443823261186e-06],"min":[-0.99931514263153076,-0.99931490421295166,-9.2873651738045737e-06],"type":"VEC3"},{"bufferView":1,"byteOffset":45264,"componentType":5126,"count":1120,"max":[0.93407368659973145,0.998008131980896],"min":[0.0018644370138645172,0.0019919651094824076],"type":"VEC2"},{"bufferView":3,"byteOffset":90528,"componentType":5126,"count":1120,"max":[0.94154465198516846,0.99931514263153076,4.1440696804784238e-05,-1],"min":[-0.99931490421295166,-0.64903992414474487,-5.3772186220157892e-05,-1],"type":"VEC4"},{"bufferView":0,"byteOffset":60240,"componentType":5125,"count":2688,"max":[1119],"min":[0],"type":"SCALAR"},{"bufferView":2,"byteOffset":162672,"componentType":5126,"count":167,"max":[464.78952026367188,32.081027984619141,387.89376831054688],"min":[-464.78952026367188,-0.51592826843261719,-387.89376831054688],"type":"VEC3"},{"bufferView":2,"byteOffset":164676,"componentType":5126,"count":167,"max":[1,1,1],"min":[-1,-8.5963347373763099e-06,-1],"type":"VEC3"},{"bufferView":1,"byteOffset":54224,"componentType":5126,"count":167,"max":[0.84297734498977661,0.9921875],"min":[0.0078125,0.0078125],"type":"VEC2"},{"bufferView":3,"byteOffset":108448,"componentType":5126,"count":167,"max":[0.66078484058380127,1,1,1],"min":[-0.66072392463684082,-1,-0.16745705902576447,1],"type":"VEC4"},{"bufferView":0,"byteOffset":70992,"componentType":5125,"count":324,"max":[166],"min":[0],"type":"SCALAR"},{"bufferView":2,"byteOffset":166680,"componentType":5126,"count":3548,"max":[528.075439453125,764.7041015625,374.1148681640625],"min":[-528.075439453125,29.632560729980469,-374.1148681640625],"type":"VEC3"},{"bufferView":2,"byteOffset":209256,"componentType":5126,"count":3548,"max":[1,1,1],"min":[-1,-1,-1],"type":"VEC3"},{"bufferView":1,"byteOffset":55560,"componentType":5126,"count":3548,"max":[0.99692302942276001,0.98829400539398193],"min":[0.0017190000507980585,0.0017190000507980585],"type":"VEC2"},{"bufferView":3,"byteOffset":111120,"componentType":5126,"count":3548,"max":[1,1,1,1],"min":[-1,-1,-1,1],"type":"VEC4"},{"bufferView":0,"byteOffset":72288,"componentType":5125,"count":16518,"max":[3547],"min":[0],"type":"SCALAR"},{"bufferView":2,"byteOffset":251832,"componentType":5126,"count":53398,"max":[347.91683959960938,888.17218017578125,407.82110595703125],"min":[-347.91683959960938,724.0498046875,-433.12704467773438],"type":"VEC3"},{"bufferView":2,"byteOffset":892608,"componentType":5126,"count":53398,"max":[1,1,1],"min":[-1,-1,-1],"type":"VEC3"},{"bufferView":1,"byteOffset":83944,"componentType":5126,"count":53398,"max":[0.99701100587844849,0.99716901779174805],"min":[0.001879999996162951,0.001879999996162951],"type":"VEC2"},{"bufferView":3,"byteOffset":167888,"componentType":5126,"count":53398,"max":[1,1,1,1],"min":[-0.99992990493774414,-1,-1,-1],"type":"VEC4"},{"bufferView":0,"byteOffset":138360,"componentType":5125,"count":215220,"max":[53397],"min":[0],"type":"SCALAR"},{"bufferView":2,"byteOffset":1533384,"componentType":5126,"count":5658,"max":[547.322021484375,808.064208984375,-372.95761108398438],"min":[-547.322021484375,-78.217071533203125,-601.5811767578125],"type":"VEC3"},{"bufferView":2,"byteOffset":1601280,"componentType":5126,"count":5658,"max":[1,1,1],"min":[-1,-1,-1],"type":"VEC3"},{"bufferView":1,"byteOffset":511128,"componentType":5126,"count":5658,"max":[0.9921875,0.95357441902160645],"min":[0.0078125,0.0078125],"type":"VEC2"},{"bufferView":3,"byteOffset":1022256,"componentType":5126,"count":5658,"max":[1,1,1,1],"min":[-0.88085037469863892,-1,-1,1],"type":"VEC4"},{"bufferView":0,"byteOffset":999240,"componentType":5125,"count":15060,"max":[5657],"min":[0],"type":"SCALAR"},{"bufferView":2,"byteOffset":1669176,"componentType":5126,"count":1120,"max":[422.15863037109375,712.55975341796875,-446.59014892578125],"min":[-422.15863037109375,39.598854064941406,-523.7626953125],"type":"VEC3"},{"bufferView":2,"byteOffset":1682616,"componentType":5126,"count":1120,"max":[0.99931514263153076,0.99931484460830688,9.2323443823261186e-06],"min":[-0.99931514263153076,-0.99931490421295166,-9.2873651738045737e-06],"type":"VEC3"},{"bufferView":1,"byteOffset":556392,"componentType":5126,"count":1120,"max":[0.93407368659973145,0.998008131980896],"min":[0.0018644370138645172,0.0019919651094824076],"type":"VEC2"},{"bufferView":3,"byteOffset":1112784,"componentType":5126,"count":1120,"max":[0.94154465198516846,0.99931514263153076,3.2801381166791543e-05,-1],"min":[-0.99931490421295166,-0.64903992414474487,-4.1440267523285002e-05,-1],"type":"VEC4"},{"bufferView":0,"byteOffset":1059480,"componentType":5125,"count":2688,"max":[1119],"min":[0],"type":"SCALAR"},{"bufferView":2,"byteOffset":1696056,"componentType":5126,"count":167,"max":[464.78952026367188,32.081027984619141,387.89376831054688],"min":[-464.78952026367188,-0.51592826843261719,-387.89376831054688],"type":"VEC3"},{"bufferView":2,"byteOffset":1698060,"componentType":5126,"count":167,"max":[1,1,1],"min":[-1,-8.5963347373763099e-06,-1],"type":"VEC3"},{"bufferView":1,"byteOffset":565352,"componentType":5126,"count":167,"max":[0.84297734498977661,0.9921875],"min":[0.0078125,0.0078125],"type":"VEC2"},{"bufferView":3,"byteOffset":1130704,"componentType":5126,"count":167,"max":[0.66078484058380127,1,1,1],"min":[-0.66072392463684082,-1,-0.16745705902576447,1],"type":"VEC4"},{"bufferView":0,"byteOffset":1070232,"componentType":5125,"count":324,"max":[166],"min":[0],"type":"SCALAR"},{"bufferView":2,"byteOffset":1700064,"componentType":5126,"count":3548,"max":[528.075439453125,764.7041015625,374.1148681640625],"min":[-528.075439453125,29.632560729980469,-374.1148681640625],"type":"VEC3"},{"bufferView":2,"byteOffset":1742640,"componentType":5126,"count":3548,"max":[1,1,1],"min":[-1,-1,-1],"type":"VEC3"},{"bufferView":1,"byteOffset":566688,"componentType":5126,"count":3548,"max":[0.99692302942276001,0.98829400539398193],"min":[0.0017190000507980585,0.0017190000507980585],"type":"VEC2"},{"bufferView":3,"byteOffset":1133376,"componentType":5126,"count":3548,"max":[1,1,1,1],"min":[-1,-1,-1,1],"type":"VEC4"},{"bufferView":0,"byteOffset":1071528,"componentType":5125,"count":16518,"max":[3547],"min":[0],"type":"SCALAR"},{"bufferView":2,"byteOffset":1785216,"componentType":5126,"count":53398,"max":[347.91683959960938,888.17218017578125,407.82110595703125],"min":[-347.91683959960938,724.0498046875,-433.12704467773438],"type":"VEC3"},{"bufferView":2,"byteOffset":2425992,"componentType":5126,"count":53398,"max":[1,1,1],"min":[-1,-1,-1],"type":"VEC3"},{"bufferView":1,"byteOffset":595072,"componentType":5126,"count":53398,"max":[0.99701100587844849,0.99716901779174805],"min":[0.001879999996162951,0.001879999996162951],"type":"VEC2"},{"bufferView":3,"byteOffset":1190144,"componentType":5126,"count":53398,"max":[1,1,1,1],"min":[-0.99992990493774414,-1,-1,-1],"type":"VEC4"},{"bufferView":0,"byteOffset":1137600,"componentType":5125,"count":215220,"max":[53397],"min":[0],"type":"SCALAR"},{"bufferView":2,"byteOffset":3066768,"componentType":5126,"count":5658,"max":[547.322021484375,808.064208984375,-372.95761108398438],"min":[-547.322021484375,-78.217071533203125,-601.5811767578125],"type":"VEC3"},{"bufferView":2,"byteOffset":3134664,"componentType":5126,"count":5658,"max":[1,1,1],"min":[-1,-1,-1],"type":"VEC3"},{"bufferView":1,"byteOffset":1022256,"componentType":5126,"count":5658,"max":[0.9921875,0.95357441902160645],"min":[0.0078125,0.0078125],"type":"VEC2"},{"bufferView":3,"byteOffset":2044512,"componentType":5126,"count":5658,"max":[1,1,1,1],"min":[-0.88085037469863892,-1,-1,1],"type":"VEC4"},{"bufferView":0,"byteOffset":1998480,"componentType":5125,"count":15060,"max":[5657],"min":[0],"type":"SCALAR"},{"bufferView":2,"byteOffset":3202560,"componentType":5126,"count":1120,"max":[422.15863037109375,712.55975341796875,-446.59014892578125],"min":[-422.15863037109375,39.598854064941406,-523.7626953125],"type":"VEC3"},{"bufferView":2,"byteOffset":3216000,"componentType":5126,"count":1120,"max":[0.99931514263153076,0.99931484460830688,9.2323443823261186e-06],"min":[-0.99931514263153076,-0.99931490421295166,-9.2873651738045737e-06],"type":"VEC3"},{"bufferView":1,"byteOffset":1067520,"componentType":5126,"count":1120,"max":[0.93407368659973145,0.998008131980896],"min":[0.0018644370138645172,0.0019919651094824076],"type":"VEC2"},{"bufferView":3,"byteOffset":2135040,"componentType":5126,"count":1120,"max":[0.94154465198516846,0.99931514263153076,3.2801381166791543e-05,-1],"min":[-0.99931490421295166,-0.64903992414474487,-4.1440267523285002e-05,-1],"type":"VEC4"},{"bufferView":0,"byteOffset":2058720,"componentType":5125,"count":2688,"max":[1119],"min":[0],"type":"SCALAR"},{"bufferView":2,"byteOffset":3229440,"componentType":5126,"count":1106,"max":[118.59710693359375,69.010696411132812,83.077507019042969],"min":[-120.88246917724609,-68.850311279296875,-83.077507019042969],"type":"VEC3"},{"bufferView":2,"byteOffset":3242712,"componentType":5126,"count":1106,"max":[1,1,1],"min":[-1,-1,-1],"type":"VEC3"},{"bufferView":1,"byteOffset":1076480,"componentType":5126,"count":1106,"max":[0.9921875,0.96688467264175415],"min":[0.0078125,0.0078125],"type":"VEC2"},{"bufferView":3,"byteOffset":2152960,"componentType":5126,"count":1106,"max":[1,1,1,1],"min":[-0.83942341804504395,-1,-1,1],"type":"VEC4"},{"bufferView":0,"byteOffset":2069472,"componentType":5125,"count":3696,"max":[1105],"min":[0],"type":"SCALAR"},{"bufferView":2,"byteOffset":3255984,"componentType":5126,"count":1106,"max":[118.59710693359375,69.010696411132812,83.077507019042969],"min":[-120.88246917724609,-68.850311279296875,-83.077507019042969],"type":"VEC3"},{"bufferView":2,"byteOffset":3269256,"componentType":5126,"count":1106,"max":[1,1,1],"min":[-1,-1,-1],"type":"VEC3"},{"bufferView":1,"byteOffset":1085328,"componentType":5126,"count":1106,"max":[0.9921875,0.96688467264175415],"min":[0.0078125,0.0078125],"type":"VEC2"},{"bufferView":3,"byteOffset":2170656,"componentType":5126,"count":1106,"max":[1,1,1,1],"min":[-0.83942341804504395,-1,-1,1],"type":"VEC4"},{"bufferView":0,"byteOffset":2084256,"componentType":5125,"count":3696,"max":[1105],"min":[0],"type":"SCALAR"},{"bufferView":2,"byteOffset":3282528,"componentType":5126,"count":1106,"max":[118.59710693359375,69.010696411132812,83.077507019042969],"min":[-120.88246917724609,-68.850311279296875,-83.077507019042969],"type":"VEC3"},{"bufferView":2,"byteOffset":3295800,"componentType":5126,"count":1106,"max":[1,1,1],"min":[-1,-1,-1],"type":"VEC3"},{"bufferView":1,"byteOffset":1094176,"componentType":5126,"count":1106,"max":[0.9921875,0.96688467264175415],"min":[0.0078125,0.0078125],"type":"VEC2"},{"bufferView":3,"byteOffset":2188352,"componentType":5126,"count":1106,"max":[1,1,1,1],"min":[-0.83942341804504395,-1,-1,1],"type":"VEC4"},{"bufferView":0,"byteOffset":2099040,"componentType":5125,"count":3696,"max":[1105],"min":[0],"type":"SCALAR"}],"asset":{"generator":"Sketchfab (OSG glTF plugin)","version":"2.0"},"bufferViews":[{"buffer":0,"byteLength":2113824,"byteOffset":0,"name":"ScalarBufferView","target":34962},{"buffer":0,"byteLength":1103024,"byteOffset":2113824,"byteStride":8,"name":"Vec2BufferView","target":34962},{"buffer":0,"byteLength":3309072,"byteOffset":3216848,"byteStride":12,"name":"Vec3BufferView","target":34962},{"buffer":0,"byteLength":2206048,"byteOffset":6525920,"byteStride":16,"name":"Vec4BufferView","target":34962}],"buffers":[{"byteLength":8731968,"uri":"scene.bin"}],"images":[{"uri":"textures\/mat_arch_baseColor.jpg"},{"uri":"textures\/mat_arch_metallicRoughness.png"},{"uri":"textures\/mat_arch_normal.jpg"},{"uri":"textures\/MAT_ceiling_SG1_baseColor.jpg"},{"uri":"textures\/MAT_ceiling_SG1_metallicRoughness.png"},{"uri":"textures\/MAT_ceiling_SG1_normal.jpg"},{"uri":"textures\/wall_baseColor.jpg"},{"uri":"textures\/wall_metallicRoughness.png"},{"uri":"textures\/wall_normal.jpg"},{"uri":"textures\/floor_baseColor.jpg"},{"uri":"textures\/floor_metallicRoughness.png"},{"uri":"textures\/floor_normal.jpg"},{"uri":"textures\/pipes_baseColor.jpg"},{"uri":"textures\/pipes_metallicRoughness.png"},{"uri":"textures\/pipes_normal.jpg"},{"uri":"textures\/mat_crate1_baseColor.jpg"},{"uri":"textures\/mat_crate1_metallicRoughness.png"},{"uri":"textures\/mat_crate1_normal.jpg"}],"materials":[{"doubleSided":true,"emissiveFactor":[0,0,0],"name":"mat_arch","normalTexture":{"index":2,"scale":1,"texCoord":0},"occlusionTexture":{"index":1,"strength":1,"texCoord":0},"pbrMetallicRoughness":{"baseColorFactor":[1,1,1,1],"baseColorTexture":{"index":0,"texCoord":0},"metallicFactor":1,"metallicRoughnessTexture":{"index":1,"texCoord":0},"roughnessFactor":1}},{"doubleSided":true,"emissiveFactor":[0,0,0],"name":"pipes","normalTexture":{"index":14,"scale":1,"texCoord":0},"occlusionTexture":{"index":13,"strength":1,"texCoord":0},"pbrMetallicRoughness":{"baseColorFactor":[1,1,1,1],"baseColorTexture":{"index":12,"texCoord":0},"metallicFactor":1,"metallicRoughnessTexture":{"index":13,"texCoord":0},"roughnessFactor":1}},{"doubleSided":true,"emissiveFactor":[0,0,0],"name":"floor","normalTexture":{"index":11,"scale":1,"texCoord":0},"occlusionTexture":{"index":10,"strength":1,"texCoord":0},"pbrMetallicRoughness":{"baseColorFactor":[1,1,1,1],"baseColorTexture":{"index":9,"texCoord":0},"metallicFactor":1,"metallicRoughnessTexture":{"index":10,"texCoord":0},"roughnessFactor":1}},{"doubleSided":true,"emissiveFactor":[0,0,0],"name":"wall","normalTexture":{"index":8,"scale":1,"texCoord":0},"occlusionTexture":{"index":7,"strength":1,"texCoord":0},"pbrMetallicRoughness":{"baseColorFactor":[1,1,1,1],"baseColorTexture":{"index":6,"texCoord":0},"metallicFactor":1,"metallicRoughnessTexture":{"index":7,"texCoord":0},"roughnessFactor":1}},{"doubleSided":true,"emissiveFactor":[0,0,0],"name":"MAT_ceiling_SG1","normalTexture":{"index":5,"scale":1,"texCoord":0},"occlusionTexture":{"index":4,"strength":1,"texCoord":0},"pbrMetallicRoughness":{"baseColorFactor":[1,1,1,1],"baseColorTexture":{"index":3,"texCoord":0},"metallicFactor":1,"metallicRoughnessTexture":{"index":4,"texCoord":0},"roughnessFactor":1}},{"doubleSided":true,"emissiveFactor":[0,0,0],"name":"mat_crate1","normalTexture":{"index":17,"scale":1,"texCoord":0},"occlusionTexture":{"index":16,"strength":1,"texCoord":0},"pbrMetallicRoughness":{"baseColorFactor":[1,1,1,1],"baseColorTexture":{"index":15,"texCoord":0},"metallicFactor":1,"metallicRoughnessTexture":{"index":16,"texCoord":0},"roughnessFactor":1}}],"meshes":[{"name":"geo_arch_low2","primitives":[{"attributes":{"NORMAL":1,"POSITION":0,"TANGENT":3,"TEXCOORD_0":2},"indices":4,"material":0,"mode":4}]},{"name":"geo_arch_posts2","primitives":[{"attributes":{"NORMAL":6,"POSITION":5,"TANGENT":8,"TEXCOORD_0":7},"indices":9,"material":1,"mode":4}]},{"name":"geo_floor_low","primitives":[{"attributes":{"NORMAL":11,"POSITION":10,"TANGENT":13,"TEXCOORD_0":12},"indices":14,"material":2,"mode":4},{"attributes":{"NORMAL":16,"POSITION":15,"TANGENT":18,"TEXCOORD_0":17},"indices":19,"material":3,"mode":4},{"attributes":{"NORMAL":21,"POSITION":20,"TANGENT":23,"TEXCOORD_0":22},"indices":24,"material":4,"mode":4},{"attributes":{"NORMAL":26,"POSITION":25,"TANGENT":28,"TEXCOORD_0":27},"indices":29,"material":0,"mode":4},{"attributes":{"NORMAL":31,"POSITION":30,"TANGENT":33,"TEXCOORD_0":32},"indices":34,"material":1,"mode":4}]},{"name":"geo_floor_low1","primitives":[{"attributes":{"NORMAL":36,"POSITION":35,"TANGENT":38,"TEXCOORD_0":37},"indices":39,"material":2,"mode":4},{"attributes":{"NORMAL":41,"POSITION":40,"TANGENT":43,"TEXCOORD_0":42},"indices":44,"material":3,"mode":4},{"attributes":{"NORMAL":46,"POSITION":45,"TANGENT":48,"TEXCOORD_0":47},"indices":49,"material":4,"mode":4},{"attributes":{"NORMAL":51,"POSITION":50,"TANGENT":53,"TEXCOORD_0":52},"indices":54,"material":0,"mode":4},{"attributes":{"NORMAL":56,"POSITION":55,"TANGENT":58,"TEXCOORD_0":57},"indices":59,"material":1,"mode":4}]},{"name":"crate_low1","primitives":[{"attributes":{"NORMAL":61,"POSITION":60,"TANGENT":63,"TEXCOORD_0":62},"indices":64,"material":5,"mode":4}]},{"name":"crate_low2","primitives":[{"attributes":{"NORMAL":66,"POSITION":65,"TANGENT":68,"TEXCOORD_0":67},"indices":69,"material":5,"mode":4}]},{"name":"crate_low3","primitives":[{"attributes":{"NORMAL":71,"POSITION":70,"TANGENT":73,"TEXCOORD_0":72},"indices":74,"material":5,"mode":4}]}],"nodes":[{"children":[1],"name":"RootNode (gltf orientation matrix)","rotation":[-0.70710678118654746,-0,-0,0.70710678118654757]},{"children":[2],"name":"RootNode (model correction matrix)"},{"children":[3],"matrix":[1,0,0,0,0,0,1,0,0,-1,0,0,0,0,0,1],"name":"8727d8fc334b472a90dacca30b46bea5.fbx"},{"children":[4,6,8,10,12,14,16],"name":"RootNode"},{"children":[5],"matrix":[1,0,0,0,0,1,0,0,0,0,1,0,0,12.765036582946777,485.00375366210938,1],"name":"geo_arch_low2"},{"mesh":0,"name":"geo_arch_low2"},{"children":[7],"matrix":[1,0,0,0,0,1,0,0,0,0,1,0,0,13.051063537597656,486.14984130859375,1],"name":"geo_arch_posts2"},{"mesh":1,"name":"geo_arch_posts2"},{"children":[9],"matrix":[1,0,0,0,0,1,0,0,0,0,1,0,0,-26.103282928466797,0,1],"name":"geo_floor_low"},{"mesh":2,"name":"geo_floor_low"},{"children":[11],"matrix":[1,0,0,0,0,1,0,0,0,0,1,0,0,-26.103282928466797,-978.43353271484375,1],"name":"geo_floor_low1"},{"mesh":3,"name":"geo_floor_low1"},{"children":[13],"matrix":[-0.058566861903437628,-0.020496746506011129,0.99807304645975292,0,-0.028068778723237698,0.99942772822031689,0.018877492560248371,0,-0.99788880460087825,-0.026909095990847301,-0.059108664383369369,0,332.5830078125,69.296974182128906,142.868408203125,1],"name":"crate_low1"},{"mesh":4,"name":"crate_low1"},{"children":[15],"matrix":[-0.89943643409943896,-0.017011631470217614,-0.436720397290082,0,-0.028068778723230034,0.99942772822031734,0.018877492560237255,0,0.43614933758458457,0.029237312788574908,-0.89939920773004411,0,211.18208312988281,65.624313354492188,-142.32992553710938,1],"name":"crate_low2"},{"mesh":5,"name":"crate_low2"},{"children":[17],"matrix":[0.76213263532338871,0,-0.64742091885806918,0,0,1,0,0,0.64742091885806918,0,0.76213263532338871,0,-203.86460876464844,65.624313354492188,-785.27093505859375,1],"name":"crate_low3"},{"mesh":6,"name":"crate_low3"}],"samplers":[{"magFilter":9729,"minFilter":9987,"wrapS":10497,"wrapT":10497}],"scene":0,"scenes":[{"name":"OSG_Scene","nodes":[0]}],"textures":[{"sampler":0,"source":0},{"sampler":0,"source":1},{"sampler":0,"source":2},{"sampler":0,"source":3},{"sampler":0,"source":4},{"sampler":0,"source":5},{"sampler":0,"source":6},{"sampler":0,"source":7},{"sampler":0,"source":8},{"sampler":0,"source":9},{"sampler":0,"source":10},{"sampler":0,"source":11},{"sampler":0,"source":12},{"sampler":0,"source":13},{"sampler":0,"source":14},{"sampler":0,"source":15},{"sampler":0,"source":16},{"sampler":0,"source":17}]}
