{"accessors":[{"bufferView":1,"componentType":5126,"count":65532,"max":[12.098187446594238,6.9540138244628906,18.641214370727539],"min":[-3.0532130040228367e-05,-4.615807056427002,0.00011164401075802743],"type":"VEC3"},{"bufferView":1,"byteOffset":786384,"componentType":5126,"count":65532,"max":[0.99995905160903931,0.99998581409454346,1],"min":[-0.99999153614044189,-0.99999970197677612,-1],"type":"VEC3"},{"bufferView":0,"componentType":5125,"count":210051,"max":[65531],"min":[0],"type":"SCALAR"},{"bufferView":1,"byteOffset":1572768,"componentType":5126,"count":65533,"max":[12.098164558410645,6.9567780494689941,18.672552108764648],"min":[-3.2206367905018851e-05,-3.7297794818878174,0.0001060857975971885],"type":"VEC3"},{"bufferView":1,"byteOffset":2359164,"componentType":5126,"count":65533,"max":[1,0.99998188018798828,1],"min":[-1,-0.99998128414154053,-1],"type":"VEC3"},{"bufferView":0,"byteOffset":840204,"componentType":5125,"count":226239,"max":[65532],"min":[0],"type":"SCALAR"},{"bufferView":1,"byteOffset":3145560,"componentType":5126,"count":65532,"max":[11.935577392578125,7.1360130310058594,18.939104080200195],"min":[-12.46514892578125,-4.8313198089599609,5.7755805755732581e-05],"type":"VEC3"},{"bufferView":1,"byteOffset":3931944,"componentType":5126,"count":65532,"max":[1,0.99994254112243652,1],"min":[-1,-0.99999356269836426,-1],"type":"VEC3"},{"bufferView":0,"byteOffset":1745160,"componentType":5125,"count":181596,"max":[65531],"min":[0],"type":"SCALAR"},{"bufferView":1,"byteOffset":4718328,"componentType":5126,"count":65532,"max":[4.7791490942472592e-05,7.1317915916442871,18.768098831176758],"min":[-12.458904266357422,-4.280491828918457,9.6258387202396989e-05],"type":"VEC3"},{"bufferView":1,"byteOffset":5504712,"componentType":5126,"count":65532,"max":[0.9999813437461853,0.99998539686203003,0.99993759393692017],"min":[-0.99998700618743896,-0.9999660849571228,-0.99993604421615601],"type":"VEC3"},{"bufferView":0,"byteOffset":2471544,"componentType":5125,"count":121458,"max":[65531],"min":[0],"type":"SCALAR"},{"bufferView":1,"byteOffset":6291096,"componentType":5126,"count":65532,"max":[5.2905947086401284e-05,7.1322231292724609,18.938396453857422],"min":[-12.30557918548584,-4.2801623344421387,6.6573011281434447e-05],"type":"VEC3"},{"bufferView":1,"byteOffset":7077480,"componentType":5126,"count":65532,"max":[0.99986708164215088,0.99998337030410767,0.99999475479125977],"min":[-0.99981153011322021,-0.99996554851531982,-0.99997121095657349],"type":"VEC3"},{"bufferView":0,"byteOffset":2957376,"componentType":5125,"count":118191,"max":[65531],"min":[0],"type":"SCALAR"},{"bufferView":1,"byteOffset":7863864,"componentType":5126,"count":65532,"max":[5.2106068324064836e-05,6.8775157928466797,18.936397552490234],"min":[-12.087532997131348,-3.857147216796875,7.2760405601002276e-05],"type":"VEC3"},{"bufferView":1,"byteOffset":8650248,"componentType":5126,"count":65532,"max":[0.99996411800384521,0.99982994794845581,0.99999237060546875],"min":[-0.99998044967651367,-0.99995130300521851,-0.99991101026535034],"type":"VEC3"},{"bufferView":0,"byteOffset":3430140,"componentType":5125,"count":116733,"max":[65531],"min":[0],"type":"SCALAR"},{"bufferView":1,"byteOffset":9436632,"componentType":5126,"count":65532,"max":[4.5970355131430551e-05,7.044975757598877,18.884586334228516],"min":[-10.793423652648926,-3.780731201171875,9.3191039923112839e-05],"type":"VEC3"},{"bufferView":1,"byteOffset":10223016,"componentType":5126,"count":65532,"max":[1,0.99992662668228149,0.99994492530822754],"min":[-1,-0.9999699592590332,-0.99988305568695068],"type":"VEC3"},{"bufferView":0,"byteOffset":3897072,"componentType":5125,"count":151689,"max":[65531],"min":[0],"type":"SCALAR"},{"bufferView":1,"byteOffset":11009400,"componentType":5126,"count":37011,"max":[5.2104041969869286e-06,7.1197109222412109,18.939121246337891],"min":[-12.46514892578125,-4.8274569511413574,0.00013939895143266767],"type":"VEC3"},{"bufferView":1,"byteOffset":11453532,"componentType":5126,"count":37011,"max":[1,0.99766290187835693,1],"min":[-1,-0.92847669124603271,-1],"type":"VEC3"},{"bufferView":0,"byteOffset":4503828,"componentType":5125,"count":108537,"max":[37010],"min":[0],"type":"SCALAR"}],"asset":{"generator":"Sketchfab (OSG glTF plugin)","version":"2.0"},"bufferViews":[{"buffer":0,"byteLength":4937976,"byteOffset":0,"name":"ScalarBufferView","target":34962},{"buffer":0,"byteLength":11897664,"byteOffset":4937976,"byteStride":12,"name":"Vec3BufferView","target":34962}],"buffers":[{"byteLength":16835640,"uri":"scene.bin"}],"materials":[{"doubleSided":true,"emissiveFactor":[0,0,0],"name":"Scene - Root","occlusionFactor":1,"pbrMetallicRoughness":{"baseColorFactor":[1,1,1,1],"metallicFactor":0,"roughnessFactor":0.5}}],"meshes":[{"name":"DualDiagram_(mm).obj","primitives":[{"attributes":{"NORMAL":1,"POSITION":0},"indices":2,"material":0,"mode":4},{"attributes":{"NORMAL":4,"POSITION":3},"indices":5,"material":0,"mode":4},{"attributes":{"NORMAL":7,"POSITION":6},"indices":8,"material":0,"mode":4},{"attributes":{"NORMAL":10,"POSITION":9},"indices":11,"material":0,"mode":4},{"attributes":{"NORMAL":13,"POSITION":12},"indices":14,"material":0,"mode":4},{"attributes":{"NORMAL":16,"POSITION":15},"indices":17,"material":0,"mode":4},{"attributes":{"NORMAL":19,"POSITION":18},"indices":20,"material":0,"mode":4},{"attributes":{"NORMAL":22,"POSITION":21},"indices":23,"material":0,"mode":4}]}],"nodes":[{"children":[1],"name":"RootNode (gltf orientation matrix)","rotation":[-0.70710678118654746,-0,-0,0.70710678118654757]},{"children":[2],"name":"RootNode (model correction matrix)"},{"children":[3],"name":"Duality.obj.cleaner.materialmerger.gles"},{"mesh":0,"name":"DualDiagram_(mm).obj"}],"scene":0,"scenes":[{"name":"OSG_Scene","nodes":[0]}]}
