{"accessors":[{"bufferView":2,"componentType":5126,"count":26712,"max":[23.929105758666992,0.51319730281829834,2.1713197231292725],"min":[-24.409082412719727,-0.46630129218101501,-2.1931967735290527],"type":"VEC3"},{"bufferView":2,"byteOffset":320544,"componentType":5126,"count":26712,"max":[0.99997997283935547,0.91933995485305786,0.99999457597732544],"min":[-0.99999672174453735,-0.99999994039535522,-0.99956816434860229],"type":"VEC3"},{"bufferView":1,"componentType":5126,"count":26712,"max":[0.99858474731445312,0.94050371646881104],"min":[0.0014299817848950624,0.0013214008649811149],"type":"VEC2"},{"bufferView":3,"componentType":5126,"count":26712,"max":[1,0.99999856948852539,0.99999666213989258,1],"min":[-0.99999672174453735,-0.99999761581420898,-0.99713414907455444,-1],"type":"VEC4"},{"bufferView":0,"componentType":5125,"count":148953,"max":[26711],"min":[0],"type":"SCALAR"}],"asset":{"generator":"Sketchfab (OSG glTF plugin)","version":"2.0"},"bufferViews":[{"buffer":0,"byteLength":595812,"byteOffset":0,"name":"ScalarBufferView","target":34962},{"buffer":0,"byteLength":213696,"byteOffset":595812,"byteStride":8,"name":"Vec2BufferView","target":34962},{"buffer":0,"byteLength":641088,"byteOffset":809508,"byteStride":12,"name":"Vec3BufferView","target":34962},{"buffer":0,"byteLength":427392,"byteOffset":1450596,"byteStride":16,"name":"Vec4BufferView","target":34962}],"buffers":[{"byteLength":1877988,"uri":"scene.bin"}],"images":[{"uri":"textures\/grafiti_mendlak_baseColor.jpeg"},{"uri":"textures\/grafiti_mendlak_metallicRoughness.png"},{"uri":"textures\/grafiti_mendlak_normal.png"}],"materials":[{"doubleSided":true,"emissiveFactor":[0,0,0],"name":"grafiti_mendlak","normalTexture":{"index":2,"scale":1,"texCoord":0},"occlusionTexture":{"index":1,"strength":1,"texCoord":0},"pbrMetallicRoughness":{"baseColorFactor":[1,1,1,1],"baseColorTexture":{"index":0,"texCoord":0},"metallicFactor":0,"roughnessFactor":0.90842690169999996}}],"meshes":[{"name":"grafiti_mendlak","primitives":[{"attributes":{"NORMAL":1,"POSITION":0,"TANGENT":3,"TEXCOORD_0":2},"indices":4,"material":0,"mode":4}]}],"nodes":[{"children":[1],"name":"RootNode (gltf orientation matrix)","rotation":[-0.70710678118654746,-0,-0,0.70710678118654757]},{"children":[2],"name":"RootNode (model correction matrix)"},{"children":[3],"matrix":[1,0,0,0,0,-1,0,0,0,0,-1,0,0,0,0,1],"name":"grafiti_mendlak.FBX"},{"children":[4],"name":"RootNode"},{"children":[5],"matrix":[1,0,0,0,0,1,0,0,0,0,1,0,1.3502607345581055,-0.62205660343170166,1.90962815284729,1],"name":"grafiti_mendlak"},{"mesh":0,"name":"grafiti_mendlak"}],"samplers":[{"magFilter":9729,"minFilter":9987,"wrapS":10497,"wrapT":10497}],"scene":0,"scenes":[{"name":"OSG_Scene","nodes":[0]}],"textures":[{"sampler":0,"source":0},{"sampler":0,"source":1},{"sampler":0,"source":2}]}
